<svg xmlns="http://www.w3.org/2000/svg" xmlns:xlink="http://www.w3.org/1999/xlink" width="24" height="24.002" x="0" y="0" enable-background="new 0 0 24 24.002" version="1.1" viewBox="0 0 24 24.002" xml:space="preserve"><g id="Frames-24px"><rect width="24" height="24.002" fill="none"/></g><g id="Outline"><g><rect width="6" height="2" x="9.001" y="2.004" fill="#757575"/><path fill="#757575" d="M21.819,8.815c-0.268-0.499-0.788-0.812-1.354-0.812H14v-1c0-1.104-0.896-2-2-2s-2,0.896-2,2v1H3.537 c-0.566,0-1.087,0.313-1.354,0.812s-0.238,1.105,0.076,1.577c0.264,0.395,0.658,0.684,1.115,0.813l6.627,2.431v3.367h-2 c-1.104,0-2,0.896-2,2v2h12v-2c0-1.104-0.896-2-2-2h-2v-3.367l6.626-2.431c0.457-0.13,0.852-0.419,1.115-0.813 C22.057,9.921,22.086,9.314,21.819,8.815z M12.001,12.004c-0.828,0-1.5-0.671-1.5-1.5c0-0.828,0.672-1.5,1.5-1.5 c0.829,0,1.5,0.672,1.5,1.5C13.501,11.333,12.83,12.004,12.001,12.004z"/></g></g></svg>