<svg xmlns="http://www.w3.org/2000/svg" xmlns:xlink="http://www.w3.org/1999/xlink" width="24" height="24" x="0" y="0" enable-background="new 0 0 24 24" version="1.1" viewBox="0 0 24 24" xml:space="preserve"><g id="Frames-24px"><rect width="24" height="24" fill="none"/></g><g id="Outline"><g><polygon fill="#757575" points="13 4 13 0 11 0 11 4 0 4 0 6 3 6 3 10 5 10 5 6 11 6 11 13 13 13 13 6 19 6 19 11 21 11 21 6 24 6 24 4"/><polygon fill="#757575" points="17 18 23 18 20 12"/><circle cx="4" cy="14" r="3" fill="#757575"/><path fill="#757575" d="M9,19c0,4,3.239,5,6,5c0,0-2-2-2-5s2-5,2-5C12.239,14,9,15,9,19z"/></g></g></svg>