<svg xmlns="http://www.w3.org/2000/svg" xmlns:xlink="http://www.w3.org/1999/xlink" width="24" height="24" x="0" y="0" enable-background="new 0 0 24 24" version="1.1" viewBox="0 0 24 24" xml:space="preserve"><g id="Frames-24px"><rect width="24" height="24" fill="none"/></g><g id="Solid"><g><path fill="#757575" d="M6.586,11h2.828l-2-2L14,2.415L17.586,6l-5,5h2.828l4.293-4.292c0.391-0.392,0.391-1.024,0-1.414l-5-5 c-0.391-0.392-1.023-0.392-1.414,0l-8,8c-0.391,0.39-0.391,1.022,0,1.414L6.586,11z"/><path fill="#757575" d="M20,12H4c-0.552,0-1,0.448-1,1v10c0,0.553,0.448,1,1,1h16c0.552,0,1-0.447,1-1V13 C21,12.448,20.552,12,20,12z M15,19h-2v2h-2v-2H9v-2h2v-2h2v2h2V19z"/><circle cx="12.5" cy="7.5" r="1.5" fill="#757575"/></g></g></svg>