<svg xmlns="http://www.w3.org/2000/svg" xmlns:xlink="http://www.w3.org/1999/xlink" width="24" height="24" x="0" y="0" enable-background="new 0 0 24 24" version="1.1" viewBox="0 0 24 24" xml:space="preserve"><g id="Frames-24px"><rect width="24" height="24" fill="none"/></g><g id="Solid"><path fill="#757575" d="M18,5h-2V3c0-0.552-0.448-1-1-1H9C8.448,2,8,2.448,8,3v2H6C5.448,5,5,5.448,5,6v14c0,1.103,0.897,2,2,2h10 c1.103,0,2-0.897,2-2V6C19,5.448,18.552,5,18,5z M11,19v-5H8l5-7v5h3L11,19z"/></g></svg>