<svg xmlns="http://www.w3.org/2000/svg" xmlns:xlink="http://www.w3.org/1999/xlink" width="24" height="24.001" x="0" y="0" enable-background="new 0 0 24 24.001" version="1.1" viewBox="0 0 24 24.001" xml:space="preserve"><g id="Frames-24px"><rect width="24" height="24.001" y="0" fill="none"/></g><g id="Outline"><path fill="#757575" d="M21.002,12.002h-4v-7c0-0.551-0.448-1-1-1h-1v-1c0-0.551-0.448-1-1-1h-4c-0.552,0-1,0.449-1,1v1h-1 c-0.552,0-1,0.449-1,1v7h-4c-0.552,0-1,0.449-1,1v8c0,0.553,0.448,1,1,1h7v-4h4v4h7c0.552,0,1-0.447,1-1v-8 C22.002,12.451,21.555,12.002,21.002,12.002z M6.002,20.002h-2v-2h2V20.002z M6.002,16.002h-2v-2h2V16.002z M11.002,16.002h-2v-2h2 V16.002z M11.002,12.002h-2v-2h2V12.002z M11.002,8.002h-2v-2h2V8.002z M15.002,16.002h-2v-2h2V16.002z M15.002,12.002h-2v-2h2 V12.002z M15.002,8.002h-2v-2h2V8.002z M20.002,20.002h-2v-2h2V20.002z M20.002,16.002h-2v-2h2V16.002z"/></g></svg>