<svg xmlns="http://www.w3.org/2000/svg" xmlns:xlink="http://www.w3.org/1999/xlink" width="24" height="24.001" x="0" y="0" enable-background="new 0 0 24 24.001" version="1.1" viewBox="0 0 24 24.001" xml:space="preserve"><g id="Frames-24px"><rect width="24" height="24.001" y="0" fill="none"/></g><g id="Outline"><g><path fill="#757575" d="M13.004,3.094v-2.09h-2v2.09c-2.836,0.477-5,2.938-5,5.91h12C18.004,6.032,15.841,3.571,13.004,3.094z"/><path fill="#757575" d="M22.004,16.004h-3v-4c0-0.552-0.448-1-1-1h-12c-0.552,0-1,0.448-1,1v4h-3c-0.552,0-1,0.448-1,1v4 c0,0.553,0.448,1,1,1h20c0.552,0,1-0.447,1-1v-4C23.004,16.452,22.557,16.004,22.004,16.004z M5.004,20.004h-2v-2h2V20.004z M9.004,20.004h-2v-2h2V20.004z M9.004,15.004h-2v-2h2V15.004z M13.004,20.004h-2v-2h2V20.004z M13.004,15.004h-2v-2h2V15.004z M17.004,20.004h-2v-2h2V20.004z M17.004,15.004h-2v-2h2V15.004z M21.004,20.004h-2v-2h2V20.004z"/></g></g></svg>