<svg xmlns="http://www.w3.org/2000/svg" xmlns:xlink="http://www.w3.org/1999/xlink" width="24" height="24" x="0" y="0" enable-background="new 0 0 24 24" version="1.1" viewBox="0 0 24 24" xml:space="preserve"><g id="Frames-24px"><rect width="24" height="24" fill="none"/></g><g id="Solid"><g><polygon fill="#757575" points="8.585 17 3.586 21.999 6.414 21.999 11 17.414 11 21.999 13 21.999 13 17.414 17.586 21.999 20.414 21.999 15.415 17"/><path fill="#757575" d="M20,2H4C2.897,2,2,2.896,2,4v1.001h20V4C22,2.896,21.103,2,20,2z"/><path fill="#757575" d="M2,14c0,1.103,0.897,2,2,2h16c1.103,0,2-0.897,2-2V6.001H2V14z"/></g></g></svg>