<svg xmlns="http://www.w3.org/2000/svg" xmlns:xlink="http://www.w3.org/1999/xlink" width="24" height="24.001" x="0" y="0" enable-background="new 0 0 24 24.001" version="1.1" viewBox="0 0 24 24.001" xml:space="preserve"><g id="Frames-24px"><rect width="24" height="24.001" fill="none"/></g><g id="Outline"><g><path fill="#757575" d="M18.001,9.831v2.171h1c0.552,0,1-0.448,1-1v-3c0-0.051-0.021-0.094-0.029-0.143L18.001,9.831z"/><path fill="#757575" d="M21.925,3.62c-0.155-0.374-0.52-0.618-0.924-0.618h-10v4h-1v-4h-2v5h-1V3.104 c-2.279,0.464-4,2.484-4,4.898c0,2.757,2.243,5,5,5h8c0.552,0,1-0.448,1-1V9.417l4.707-4.708 C21.995,4.424,22.08,3.993,21.925,3.62z"/><path fill="#757575" d="M10.001,15.248l-5,1.429v-2.675h-2v7h2v-2.245l6.275-1.793c0.429-0.123,0.725-0.516,0.725-0.962v-2h-2 V15.248z"/></g></g></svg>