<svg xmlns="http://www.w3.org/2000/svg" xmlns:xlink="http://www.w3.org/1999/xlink" width="24" height="24" x="0" y="0" enable-background="new 0 0 24 24" version="1.1" viewBox="0 0 24 24" xml:space="preserve"><g id="Frames-24px"><rect width="24" height="24" fill="none"/></g><g id="Solid"><g><path fill="#757575" d="M11.09,7H2C0.897,7,0,7.897,0,9v9c0,1.103,0.897,2,2,2h1v4l5.333-4H15c1.103,0,2-0.897,2-2v-6 C14.028,12,11.567,9.836,11.09,7z"/><polygon fill="#757575" points="20.707 3.707 19.293 2.293 17 4.586 14.707 2.293 13.293 3.707 15.586 6 13.293 8.293 14.707 9.707 17 7.414 19.293 9.707 20.707 8.293 18.414 6"/></g></g></svg>