<svg xmlns="http://www.w3.org/2000/svg" xmlns:xlink="http://www.w3.org/1999/xlink" width="24" height="24" x="0" y="0" enable-background="new 0 0 24 24" version="1.1" viewBox="0 0 24 24" xml:space="preserve"><g id="Frames-24px"><rect width="24" height="24" fill="none"/></g><g id="Solid"><g><path fill="#757575" d="M18,2c0-1.104-0.896-2-2-2s-2,0.896-2,2c0-1.104-0.896-2-2-2s-2,0.896-2,2c0-1.104-0.896-2-2-2 S6,0.896,6,2c0,0.157,0.022,0.309,0.057,0.456L7,10c0,2.757,2.243,5,5,5s5-2.243,5-5l0.943-7.544C17.978,2.309,18,2.157,18,2z M12,13c-1.654,0-3-1.346-3-3h6C15,11.654,13.654,13,12,13z"/><g><path fill="#757575" d="M8,16.705C5.532,17.679,4,19.591,4,22v2h4V16.705z"/><path fill="#757575" d="M12,16c-1.084,0-2.089,0.136-3,0.381V24h11v-2C20,18.467,16.71,16,12,16z M12,20c-0.552,0-1-0.447-1-1 c0-0.552,0.448-1,1-1s1,0.448,1,1C13,19.553,12.552,20,12,20z"/></g></g></g></svg>