<svg xmlns="http://www.w3.org/2000/svg" xmlns:xlink="http://www.w3.org/1999/xlink" width="24" height="24" x="0" y="0" enable-background="new 0 0 24 24" version="1.1" viewBox="0 0 24 24" xml:space="preserve"><g id="Frames-24px"><rect width="24" height="24" fill="none"/></g><g id="Solid"><g><path fill="#757575" d="M12,19H4V5h12v3h2V4c0-1.104-0.896-2-2-2H4C2.896,2,2,2.896,2,4v16c0,1.104,0.896,2,2,2h8V19z"/><path fill="#757575" d="M22,12c0-1.104-0.896-2-2-2h-4c-1.104,0-2,0.896-2,2v8c0,1.104,0.896,2,2,2h4c1.104,0,2-0.896,2-2V12z M20,19h-4v-7h4V19z"/></g></g></svg>