<svg xmlns="http://www.w3.org/2000/svg" xmlns:xlink="http://www.w3.org/1999/xlink" width="24" height="24" x="0" y="0" enable-background="new 0 0 24 24" version="1.1" viewBox="0 0 24 24" xml:space="preserve"><g id="Frames-24px"><rect width="24" height="24" fill="none"/></g><g id="Solid"><g><path fill="#757575" d="M19,8h-1v2h1v6H5v-6h1V8H5c-1.103,0-2,0.897-2,2v9c0,1.103,0.897,2,2,2h6v1H8v2h8v-2h-3v-1h6 c1.103,0,2-0.897,2-2v-9C21,8.897,20.103,8,19,8z"/><polygon fill="#757575" points="16.707 7.707 15.293 6.293 13 8.586 13 0 11 0 11 8.586 8.707 6.293 7.293 7.707 12 12.414"/></g></g></svg>