<svg xmlns="http://www.w3.org/2000/svg" xmlns:xlink="http://www.w3.org/1999/xlink" width="24" height="24" x="0" y="0" enable-background="new 0 0 24 24" version="1.1" viewBox="0 0 24 24" xml:space="preserve"><g id="Frames-24px"><rect width="24" height="24" fill="none"/></g><g id="Solid"><g><g><polygon fill="#757575" points="6 11.134 6 4 18 4 18 11.134 20 9.991 20 2 4 2 4 9.991"/><path fill="#757575" d="M15.266,15H8.734L2,11.152V20c0,1.104,0.896,2,2,2h16c1.104,0,2-0.896,2-2v-8.848L15.266,15z"/></g><g><path fill="#757575" d="M12,13c0,0,4-2.909,4-5.064C16,5.89,12.889,5,12,7.688C11.111,5,8,5.89,8,7.936C8,10.091,12,13,12,13"/></g></g></g></svg>