<svg xmlns="http://www.w3.org/2000/svg" xmlns:xlink="http://www.w3.org/1999/xlink" width="24" height="24" x="0" y="0" enable-background="new 0 0 24 24" version="1.1" viewBox="0 0 24 24" xml:space="preserve"><g id="Frames-24px"><rect width="24" height="24" fill="none"/></g><g id="Outline"><g><path fill="#757575" d="M16,4h-2c0-1.104-0.896-2-2-2s-2,0.896-2,2H8v3h8V4z"/><path fill="#757575" d="M19,5h-1v3H6V5H5C3.896,5,3,5.896,3,7v14c0,1.104,0.896,2,2,2h14c1.104,0,2-0.896,2-2V7 C21,5.896,20.104,5,19,5z M16,16h-3v3h-2v-3H8v-2h3v-3h2v3h3V16z"/></g></g></svg>