<svg xmlns="http://www.w3.org/2000/svg" xmlns:xlink="http://www.w3.org/1999/xlink" width="24" height="24" x="0" y="0" enable-background="new 0 0 24 24" version="1.1" viewBox="0 0 24 24" xml:space="preserve"><g id="Frames-24px"><rect width="24" height="24" fill="none"/></g><g id="Outline"><path fill="#757575" d="M18,2H6C4.896,2,4,2.896,4,4v16c0,1.104,0.896,2,2,2h12c1.104,0,2-0.896,2-2V4C20,2.896,19.104,2,18,2z M11,19.415l-3.707-3.708l1.414-1.414L11,16.586l4.293-4.293l1.414,1.414L11,19.415z M11,11.415L7.293,7.707l1.414-1.414L11,8.586 l4.293-4.293l1.414,1.414L11,11.415z"/></g></svg>