<svg xmlns="http://www.w3.org/2000/svg" xmlns:xlink="http://www.w3.org/1999/xlink" width="24.001" height="24" x="0" y="0" enable-background="new 0 0 24.001 24" version="1.1" viewBox="0 0 24.001 24" xml:space="preserve"><g id="Frames-24px"><rect width="24.001" height="24" fill="none"/></g><g id="Outline"><g><polygon fill="#757575" points="23.896 .006 14 1.047 14 3.059 24.104 1.994"/><polygon fill="#757575" points="7 3.795 7 1.784 4.896 2.006 5.104 3.994"/><rect width="2" height="2" x="5" y="5" fill="#757575"/><rect width="10" height="2" x="14" y="5" fill="#757575"/><rect width="2" height="9" x="8" y="1" fill="#757575"/><rect width="2" height="8" x="11" fill="#757575"/><path fill="#757575" d="M15.792,11.406c-0.011-0.014-0.012-0.033-0.024-0.046C15.578,11.132,15.296,11,15,11H4 c-0.296,0-0.578,0.132-0.768,0.359c-0.012,0.014-0.014,0.032-0.024,0.046L3.2,11.4l-3,4l1.6,1.2l1.626-2.168l1.59,8.747 C5.103,23.654,5.517,24,6,24h7c0.483,0,0.897-0.346,0.984-0.821l1.59-8.747L17.2,16.6l1.6-1.2l-3-4L15.792,11.406z"/></g></g></svg>