<svg xmlns="http://www.w3.org/2000/svg" xmlns:xlink="http://www.w3.org/1999/xlink" width="24" height="24" x="0" y="0" enable-background="new 0 0 24 24" version="1.1" viewBox="0 0 24 24" xml:space="preserve"><g id="Frames-24px"><rect width="24" height="24" fill="none"/></g><g id="Outline"><g><path fill="#757575" d="M2.002,11.002v1c0,0.379,0.214,0.726,0.553,0.895l1.339,0.67l-0.878,5.271 c-0.048,0.29,0.033,0.586,0.223,0.811s0.469,0.354,0.763,0.354h6v-2H9.183l0.667-4h1.153v2h2v-2h7c0.552,0,1-0.448,1-1v-2H2.002z"/><path fill="#757575" d="M21.002,7.002v-3h-2v1h-12v-1h-2v1c-1.654,0-3,1.346-3,3v2h19v-1h1v-2H21.002z M13.002,8.002h-6v-2h6 V8.002z"/></g></g></svg>