<svg xmlns="http://www.w3.org/2000/svg" xmlns:xlink="http://www.w3.org/1999/xlink" width="24.001" height="24" x="0" y="0" enable-background="new 0 0 24.001 24" version="1.1" viewBox="0 0 24.001 24" xml:space="preserve"><g id="Frames-24px"><rect width="24.001" height="24" fill="none"/></g><g id="Outline"><g><path fill="#757575" d="M14.002,3.002c-1.104,0-2,0.896-2,2h4C16.002,3.897,15.107,3.002,14.002,3.002z"/><path fill="#757575" d="M9.002,17.186v-7.184c0-0.552-0.448-1-1-1h-2c-0.265,0-0.52,0.105-0.707,0.293l-3,3 c-0.188,0.188-0.293,0.442-0.293,0.707v6c0,0.552,0.448,1,1,1h2c0-1.657,1.344-3,3-3C8.355,17.002,8.688,17.074,9.002,17.186z M7.002,14.002h-2v-2h2V14.002z"/><circle cx="8.002" cy="20.002" r="2" fill="#757575"/><path fill="#757575" d="M20.002,6.002h-8c-1.103,0-2,0.897-2,2v9.778c0.609,0.549,1,1.337,1,2.222h3c0-1.657,1.344-3,3-3 c1.657,0,3,1.343,3,3h1c0.552,0,1-0.448,1-1v-11C22.002,6.899,21.105,6.002,20.002,6.002z M19.002,13.002h-2v2h-2v-2h-2v-2h2v-2h2 v2h2V13.002z"/><circle cx="17.002" cy="20.002" r="2" fill="#757575"/></g></g></svg>