<svg xmlns="http://www.w3.org/2000/svg" xmlns:xlink="http://www.w3.org/1999/xlink" width="24" height="24.001" x="0" y="0" enable-background="new 0 0 24 24.001" version="1.1" viewBox="0 0 24 24.001" xml:space="preserve"><g id="Frames-24px"><rect width="24" height="24.001" y="0" fill="none"/></g><g id="Outline"><path fill="#757575" d="M20.002,14.291V6.003h-2v2h-12l0-2h-2v8.288c-0.667,0.213-1.333,0.446-2,0.712v7h2v-2h16v2h2v-7 C21.335,14.736,20.669,14.504,20.002,14.291z M18.002,10.003v3.724c-1.667-0.399-3.333-0.633-5-0.699v-3.025H18.002z M6.002,10.003 h5v3.025c-1.667,0.066-3.333,0.3-5,0.699V10.003z M4.002,18.003v-1h16v1H4.002z"/></g></svg>