<svg xmlns="http://www.w3.org/2000/svg" xmlns:xlink="http://www.w3.org/1999/xlink" width="24" height="24.001" x="0" y="0" enable-background="new 0 0 24 24.001" version="1.1" viewBox="0 0 24 24.001" xml:space="preserve"><g id="Frames-24px"><rect width="24" height="24.001" y="0" fill="none"/></g><g id="Outline"><g><path fill="#757575" d="M18.002,1.003h-9c-1.103,0-2,0.897-2,2v2h2v-2h9c0.551,0,1,0.449,1,1v14h-1v-1h-2v4h2v-1h1v3h2v-19 C21.002,2.349,19.657,1.003,18.002,1.003z"/><circle cx="8.002" cy="8.003" r="1" fill="#757575"/><circle cx="6.002" cy="10.503" r="1" fill="#757575"/><circle cx="10.002" cy="10.503" r="1" fill="#757575"/><circle cx="8.002" cy="13.003" r="1" fill="#757575"/><circle cx="4.002" cy="13.003" r="1" fill="#757575"/><circle cx="12.002" cy="13.003" r="1" fill="#757575"/></g></g></svg>