<svg xmlns="http://www.w3.org/2000/svg" xmlns:xlink="http://www.w3.org/1999/xlink" width="24" height="24.002" x="0" y="0" enable-background="new 0 0 24 24.002" version="1.1" viewBox="0 0 24 24.002" xml:space="preserve"><g id="Frames-24px"><rect width="24" height="24.002" y="0" fill="none"/><rect width="24" height="24.002" y="0" fill="none"/></g><g id="Outline"><g><circle cx="12.002" cy="12.004" r="3" fill="#757575"/><path fill="#757575" d="M22.002,11.004h-2.069c-0.454-3.611-3.319-6.477-6.931-6.931V2.004h-2v2.069 c-3.611,0.454-6.477,3.32-6.931,6.931H2.002v2h2.069c0.454,3.611,3.319,6.477,6.931,6.931v2.069h2v-2.069 c3.612-0.454,6.477-3.32,6.931-6.931h2.069V11.004z M12.002,18.004c-3.309,0-6-2.691-6-6s2.691-6,6-6s6,2.691,6,6 S15.311,18.004,12.002,18.004z"/></g></g></svg>