<svg xmlns="http://www.w3.org/2000/svg" xmlns:xlink="http://www.w3.org/1999/xlink" width="24" height="24" x="0" y="0" enable-background="new 0 0 24 24" version="1.1" viewBox="0 0 24 24" xml:space="preserve"><g id="Frames-24px"><rect width="24" height="24" fill="none"/></g><g id="Solid"><path fill="#757575" d="M17,11H9V7c0-1.654,1.346-3,3-3s3,1.346,3,3v1h2V7c0-2.757-2.243-5-5-5S7,4.243,7,7v4c-1.103,0-2,0.896-2,2 v7c0,1.103,0.897,2,2,2h10c1.103,0,2-0.897,2-2v-7C19,11.896,18.103,11,17,11z M12,18c-0.828,0-1.5-0.672-1.5-1.5S11.172,15,12,15 s1.5,0.672,1.5,1.5S12.828,18,12,18z"/></g></svg>