<svg xmlns="http://www.w3.org/2000/svg" xmlns:xlink="http://www.w3.org/1999/xlink" width="24" height="24" x="0" y="0" enable-background="new 0 0 24 24" version="1.1" viewBox="0 0 24 24" xml:space="preserve"><g id="Frames-24px"><rect width="24" height="24" fill="none"/></g><g id="Solid"><g><path fill="#757575" d="M15.44,17.619l-1.403-1.027V18h-8V6h8v2.356l2-2.731V4c0-1.104-0.896-2-2-2h-8c-1.104,0-2,0.896-2,2v16 c0,1.104,0.896,2,2,2h8c1.104,0,2-0.896,2-2v-3.196L15.44,17.619z"/><g><polygon fill="#757575" points="14.244 15.261 9.272 11.532 10.772 9.532 13.801 11.804 19.045 5.221 21 6.779"/></g></g></g></svg>