<svg xmlns="http://www.w3.org/2000/svg" xmlns:xlink="http://www.w3.org/1999/xlink" width="24" height="24" x="0" y="0" enable-background="new 0 0 24 24" version="1.1" viewBox="0 0 24 24" xml:space="preserve"><g id="Frames-24px"><rect width="24" height="24" fill="none"/></g><g id="Solid"><g><path fill="#757575" d="M8,12.781V6h6.78l2.963-2.963C17.402,2.422,16.753,2,16,2H8C6.896,2,6,2.896,6,4v10.781L8,12.781z"/><path fill="#757575" d="M21.293,2.316L2.822,20.787l1.414,1.414l1.804-1.803C6.225,21.312,7.032,22,8,22h8c1.104,0,2-0.896,2-2 V8.438l4.707-4.707L21.293,2.316z M16,18H8.438L16,10.438V18z"/></g></g></svg>