<svg xmlns="http://www.w3.org/2000/svg" xmlns:xlink="http://www.w3.org/1999/xlink" width="24" height="24" x="0" y="0" enable-background="new 0 0 24 24" version="1.1" viewBox="0 0 24 24" xml:space="preserve"><g id="Frames-24px"><rect width="24" height="24" fill="none"/></g><g id="Solid"><path fill="#757575" d="M12,1C5.935,1,1,5.935,1,12c0,6.066,4.935,11,11,11s11-4.934,11-11C23,5.935,18.065,1,12,1z M14,17h-1v-2h1 c1.103,0,2-0.897,2-2c0-1.102-0.897-2-2-2H8.414l2,2L9,14.414L4.586,10L9,5.586L10.414,7l-2,2H14c2.206,0,4,1.794,4,4 S16.206,17,14,17z"/></g></svg>