<svg xmlns="http://www.w3.org/2000/svg" xmlns:xlink="http://www.w3.org/1999/xlink" width="24" height="24" x="0" y="0" enable-background="new 0 0 24 24" version="1.1" viewBox="0 0 24 24" xml:space="preserve"><g id="Frames-24px"><rect width="24" height="24" fill="none"/></g><g id="Solid"><g><path fill="#757575" d="M8,4.5C8,3.671,7.328,3,6.5,3S5,3.671,5,4.5V5h3V4.5z"/><polygon fill="#757575" points="8 15 8 6 5 6 5 15 6.5 18"/><path fill="#757575" d="M21,7H10v2h5v10H3V7C1.896,7,1,7.896,1,9v10c0,1.104,0.896,2,2,2h18c1.104,0,2-0.896,2-2V9 C23,7.896,22.104,7,21,7z M21,15h-4v-2h4V15z"/></g></g></svg>