<svg xmlns="http://www.w3.org/2000/svg" xmlns:xlink="http://www.w3.org/1999/xlink" width="24" height="24" x="0" y="0" enable-background="new 0 0 24 24" version="1.1" viewBox="0 0 24 24" xml:space="preserve"><g id="Frames-24px"><rect width="24" height="24" fill="none"/></g><g id="Solid"><path fill="#757575" d="M20,5.005H4c-1.104,0-2,0.896-2,2v10c0,1.105,0.896,2,2,2h16c1.104,0,2-0.895,2-2v-10 C22,5.901,21.104,5.005,20,5.005z M12,8.005c1.104,0,2,0.896,2,2c0,1.105-0.896,2-2,2s-2-0.895-2-2C10,8.901,10.896,8.005,12,8.005 z M9,16.005c0-1.657,1.343-3,3-3s3,1.343,3,3H9z"/></g></svg>