<svg xmlns="http://www.w3.org/2000/svg" xmlns:xlink="http://www.w3.org/1999/xlink" width="24" height="24.002" x="0" y="0" enable-background="new 0 0 24 24.002" version="1.1" viewBox="0 0 24 24.002" xml:space="preserve"><g id="Frames-24px"><rect width="24" height="24.002" fill="none"/></g><g id="Outline"><g><path fill="#757575" d="M13.999,8.001c-1,0-2,0.999-2,1.999c0-1-1-1.999-2-1.999c-2,0-3,1.344-3,2.999c0,3,5,6,5,6s5-3,5-6 C16.999,9.345,15.999,8.001,13.999,8.001z"/><path fill="#757575" d="M23.999,11h-2.051c-0.47-4.717-4.232-8.478-8.949-8.948V0h-2v2.052C6.282,2.522,2.52,6.283,2.05,11h-2.051 v2H2.05c0.47,4.717,4.232,8.479,8.949,8.949V24h2v-2.051c4.717-0.471,8.479-4.232,8.949-8.949h2.051V11z M12.999,19.931V19h-2 v0.931C7.388,19.478,4.522,16.612,4.068,13h0.931v-2H4.068c0.454-3.611,3.319-6.477,6.931-6.93V5h2V4.07 C16.61,4.523,19.476,7.389,19.93,11h-0.931v2h0.931C19.476,16.612,16.611,19.478,12.999,19.931z"/></g></g></svg>