<svg xmlns="http://www.w3.org/2000/svg" xmlns:xlink="http://www.w3.org/1999/xlink" width="24" height="24" x="0" y="0" enable-background="new 0 0 24 24" version="1.1" viewBox="0 0 24 24" xml:space="preserve"><g id="Frames-24px"><rect width="24" height="24" fill="none"/></g><g id="Solid"><g><path fill="#757575" d="M20,8H10c-1.104,0-2,0.896-2,2v10c0,1.104,0.896,2,2,2h10c1.104,0,2-0.896,2-2V10C22,8.896,21.104,8,20,8z"/><path fill="#757575" d="M4,4h10l0,3h2V4c0-1.102-0.897-2-2-2H4C2.897,2,2,2.898,2,4v10c0,1.103,0.897,2,2,2h3v-2H4V4z"/></g></g></svg>