<svg xmlns="http://www.w3.org/2000/svg" xmlns:xlink="http://www.w3.org/1999/xlink" width="24" height="24" x="0" y="0" enable-background="new 0 0 24 24" version="1.1" viewBox="0 0 24 24" xml:space="preserve"><g id="Frames-24px"><rect width="24" height="24" fill="none"/></g><g id="Solid"><g><path fill="#757575" d="M16,14V4c0-1.104-0.896-2-2-2H4C2.896,2,2,2.896,2,4v10c0,1.104,0.896,2,2,2h10C15.104,16,16,15.104,16,14 z"/><path fill="#757575" d="M20,8h-3v2h3l0.001,10H10v-3H8v3c0,1.103,0.897,2,2,2h10c1.103,0,2-0.897,2-2V10C22,8.898,21.103,8,20,8z"/></g></g></svg>