<svg xmlns="http://www.w3.org/2000/svg" xmlns:xlink="http://www.w3.org/1999/xlink" width="24" height="24" x="0" y="0" enable-background="new 0 0 24 24" version="1.1" viewBox="0 0 24 24" xml:space="preserve"><g id="Frames-24px"><rect width="24" height="24" fill="none"/></g><g id="Solid"><path fill="#757575" d="M14.5,6c0-0.345,0.047-0.677,0.121-1H2v2h12.621C14.547,6.677,14.5,6.345,14.5,6z"/><path fill="#757575" d="M14.5,18c0-0.345,0.047-0.677,0.121-1H2v2h12.621C14.547,18.677,14.5,18.345,14.5,18z"/><g><path fill="#757575" d="M4.5,12c0-0.345,0.047-0.677,0.121-1H2v2h2.621C4.547,12.677,4.5,12.345,4.5,12z"/><path fill="#757575" d="M13.379,11c0.074,0.323,0.121,0.655,0.121,1s-0.047,0.677-0.121,1H22v-2H13.379z"/></g><circle cx="19" cy="6" r="3" fill="#757575"/><circle cx="9" cy="12" r="3" fill="#757575"/><circle cx="19" cy="18" r="3" fill="#757575"/></g></svg>