<svg xmlns="http://www.w3.org/2000/svg" xmlns:xlink="http://www.w3.org/1999/xlink" width="24" height="24" x="0" y="0" enable-background="new 0 0 24 24" version="1.1" viewBox="0 0 24 24" xml:space="preserve"><g id="Frames-24px"><rect width="24" height="24" fill="none"/></g><g id="Solid"><g><path fill="#757575" d="M11.383,4.082c-0.374-0.155-0.804-0.07-1.09,0.217L6,9.005H3c-0.55,0-1,0.45-1,1v6c0,0.55,0.45,1,1,1h3 l4.293,4.707c0.286,0.286,0.716,0.371,1.09,0.217S12,21.409,12,21.005v-16C12,4.6,11.757,4.235,11.383,4.082z"/><polygon fill="#757575" points="22 12.005 19 12.005 19 9.005 17 9.005 17 12.005 14 12.005 14 14.005 17 14.005 17 17.005 19 17.005 19 14.005 22 14.005"/></g></g></svg>