<svg xmlns="http://www.w3.org/2000/svg" xmlns:xlink="http://www.w3.org/1999/xlink" width="24" height="24.002" x="0" y="0" enable-background="new 0 0 24 24.002" version="1.1" viewBox="0 0 24 24.002" xml:space="preserve"><g id="Frames-24px"><rect width="24" height="24.002" fill="none"/></g><g id="Outline"><g><path fill="#757575" d="M19,5.002h-2c-1.104,0-2,0.896-2,2v3H9v-3c0-1.104-0.896-2-2-2H5c-1.104,0-2,0.896-2,2v8 c0,1.104,0.896,2,2,2h2c1.104,0,2-0.896,2-2v-3h6v3c0,1.104,0.896,2,2,2h2c1.104,0,2-0.896,2-2v-8C21,5.897,20.105,5.002,19,5.002 z"/><rect width="2" height="4" x="22" y="9.002" fill="#757575"/><rect width="2" height="4" x="0" y="9.002" fill="#757575"/></g></g></svg>