<svg xmlns="http://www.w3.org/2000/svg" xmlns:xlink="http://www.w3.org/1999/xlink" width="24" height="24" x="0" y="0" enable-background="new 0 0 24 24" version="1.1" viewBox="0 0 24 24" xml:space="preserve"><g id="Frames-24px"><rect width="24" height="24" fill="none"/></g><g id="Solid"><g><circle cx="12" cy="12.002" r="5" fill="#757575"/><rect width="2" height="3" x="11" y="2.002" fill="#757575"/><rect width="2" height="3.001" x="17.01" y="4.491" fill="#757575" transform="matrix(0.7071 0.7071 -0.7071 0.7071 9.5119 -10.9802)"/><rect width="3" height="2" x="19" y="11.002" fill="#757575"/><rect width="3.001" height="1.999" x="16.51" y="17.013" fill="#757575" transform="matrix(-0.7072 -0.707 0.707 -0.7072 18.0115 43.4848)"/><rect width="2" height="3" x="11" y="19.002" fill="#757575"/><rect width="1.999" height="3.001" x="4.99" y="16.512" fill="#757575" transform="matrix(-0.7072 -0.707 0.707 -0.7072 -2.5088 34.9865)"/><rect width="3" height="2" x="2" y="11.002" fill="#757575"/><rect width="3.001" height="2" x="4.489" y="4.992" fill="#757575" transform="matrix(0.7071 0.7071 -0.7071 0.7071 5.9911 -2.4805)"/></g></g></svg>