<svg xmlns="http://www.w3.org/2000/svg" xmlns:xlink="http://www.w3.org/1999/xlink" width="24" height="24" x="0" y="0" enable-background="new 0 0 24 24" version="1.1" viewBox="0 0 24 24" xml:space="preserve"><g id="Frames-24px"><rect width="24" height="24" fill="none"/></g><g id="Outline"><g><path fill="#757575" d="M19.003,11.004h-3v2h3c0.551,0,1,0.448,1,1c0,0.552-0.449,1-1,1h-13c-1.654,0-3,1.346-3,3s1.346,3,3,3h9v1 h2v-2c0-0.552-0.448-1-1-1h-10c-0.551,0-1-0.448-1-1c0-0.552,0.449-1,1-1h13c1.654,0,3-1.346,3-3S20.658,11.004,19.003,11.004z"/><path fill="#757575" d="M14.003,14.004c0.552,0,1-0.448,1-1v-4c0-3.86-3.14-7-7-7h-4c-1.103,0-2,0.897-2,2v9c0,0.552,0.448,1,1,1 H14.003z M5.003,9.004h6v2h-6V9.004z"/></g></g></svg>