<svg xmlns="http://www.w3.org/2000/svg" xmlns:xlink="http://www.w3.org/1999/xlink" width="24" height="24.001" x="0" y="0" enable-background="new 0 0 24 24.001" version="1.1" viewBox="0 0 24 24.001" xml:space="preserve"><g id="Frames-24px"><rect width="24" height="24.001" fill="none"/><rect width="24" height="24.001" fill="none"/></g><g id="Outline"><g><polygon fill="#757575" points="11.002 8.002 13.002 8.002 13.002 5.002 16.002 5.002 16.002 3.002 8.002 3.002 8.002 5.002 11.002 5.002"/><path fill="#757575" d="M16.002,9.002h-8c-1.104,0-2,0.896-2,2v9c0,1.105,0.896,2,2,2v1h2v-1h4v1h2v-1c1.104,0,2-0.895,2-2v-9 C18.002,9.898,17.106,9.002,16.002,9.002z M16.002,13.002v2h-1v-2h-7v-1h8V13.002z"/></g></g></svg>