<svg xmlns="http://www.w3.org/2000/svg" xmlns:xlink="http://www.w3.org/1999/xlink" width="24" height="24" x="0" y="0" enable-background="new 0 0 24 24" version="1.1" viewBox="0 0 24 24" xml:space="preserve"><g id="Frames-24px"><rect width="24" height="24" fill="none"/></g><g id="Solid"><g><path fill="#757575" d="M10.667,8h2.666C14.252,8,15,7.252,15,6.333V3.667C15,2.748,14.252,2,13.333,2h-2.666 C9.748,2,9,2.748,9,3.667v2.667C9,7.252,9.748,8,10.667,8z"/><path fill="#757575" d="M6.333,16H3.667C2.748,16,2,16.748,2,17.667v2.667C2,21.252,2.748,22,3.667,22h2.666 C7.252,22,8,21.252,8,20.333v-2.667C8,16.748,7.252,16,6.333,16z"/><path fill="#757575" d="M20.333,16h-2.666C16.748,16,16,16.748,16,17.667v2.667C16,21.252,16.748,22,17.667,22h2.666 C21.252,22,22,21.252,22,20.333v-2.667C22,16.748,21.252,16,20.333,16z"/><rect width="2" height="6.708" x="7.5" y="8.646" fill="#757575" transform="matrix(0.8944 0.4472 -0.4472 0.8944 6.2639 -2.5344)"/><rect width="6.708" height="2" x="12.146" y="11" fill="#757575" transform="matrix(-0.4472 -0.8944 0.8944 -0.4472 11.6987 31.2302)"/><rect width="4" height="2" x="10" y="18" fill="#757575"/></g></g></svg>