<svg xmlns="http://www.w3.org/2000/svg" xmlns:xlink="http://www.w3.org/1999/xlink" width="24" height="24" x="0" y="0" enable-background="new 0 0 24 24" version="1.1" viewBox="0 0 24 24" xml:space="preserve"><g id="Frames-24px"><rect width="24" height="24" fill="none"/></g><g id="Solid"><g><path fill="#757575" d="M8,14H4c-1.103,0-2,0.898-2,2v4c0,1.103,0.897,2,2,2h4c1.103,0,2-0.897,2-2v-4C10,14.898,9.103,14,8,14z"/><path fill="#757575" d="M20,2h-4c-1.103,0-2,0.898-2,2v4c0,1.103,0.897,2,2,2h4c1.103,0,2-0.897,2-2V4C22,2.898,21.103,2,20,2z"/><rect width="1.999" height="4.243" x="11" y="9.879" fill="#757575" transform="matrix(-0.7072 -0.707 0.707 -0.7072 12.0029 28.9706)"/></g></g></svg>