<svg xmlns="http://www.w3.org/2000/svg" xmlns:xlink="http://www.w3.org/1999/xlink" width="24" height="24" x="0" y="0" enable-background="new 0 0 24 24" version="1.1" viewBox="0 0 24 24" xml:space="preserve"><g id="Frames-24px"><rect width="24" height="24" fill="none"/></g><g id="Solid"><g><g><path fill="#757575" d="M7,17c0-1.841,1.159-3,3-3l0,0c1.841,0,3,1.159,3,3H7z"/></g><g><circle cx="10" cy="11" r="2" fill="#757575"/></g><path fill="#757575" d="M16,9v11H4V6h8V2H4C2.897,2,2,2.897,2,4v18c0,1.103,0.897,2,2,2h12c1.103,0,2-0.897,2-2V9H16z"/><path fill="#757575" d="M20,3V2c0-0.553-0.448-1-1-1h-4c-0.552,0-1,0.447-1,1v4c0,0.553,0.448,1,1,1h4c0.552,0,1-0.447,1-1V5l3,1 V2L20,3z"/></g></g></svg>