<svg xmlns="http://www.w3.org/2000/svg" xmlns:xlink="http://www.w3.org/1999/xlink" width="24" height="24" x="0" y="0" enable-background="new 0 0 24 24" version="1.1" viewBox="0 0 24 24" xml:space="preserve"><g id="Frames-24px"><rect width="24" height="24" fill="none"/></g><g id="Solid"><g><path fill="#757575" d="M9,3.003H6c-0.55,0-1,0.45-1,1v16c0,0.55,0.45,1,1,1h3c0.55,0,1-0.45,1-1v-16C10,3.453,9.55,3.003,9,3.003 z"/><path fill="#757575" d="M17,3.003h-3c-0.55,0-1,0.45-1,1v16c0,0.55,0.45,1,1,1h3c0.55,0,1-0.45,1-1v-16 C18,3.453,17.55,3.003,17,3.003z"/></g></g></svg>