<svg xmlns="http://www.w3.org/2000/svg" xmlns:xlink="http://www.w3.org/1999/xlink" width="24" height="24" x="0" y="0" enable-background="new 0 0 24 24" version="1.1" viewBox="0 0 24 24" xml:space="preserve"><g id="Frames-24px"><rect width="24" height="24" fill="none"/></g><g id="Solid"><g><path fill="#757575" d="M20.042,14.29L17,15.203v-1.2c0-1.1-0.9-2-2-2H7c-1.1,0-2,0.9-2,2v6c0,1.1,0.9,2,2,2h8c1.1,0,2-0.9,2-2 v-1.2l3.042,0.914C20.569,19.874,21,19.553,21,19.003v-4C21,14.453,20.569,14.133,20.042,14.29z"/><circle cx="6" cy="7.003" r="4" fill="#757575"/><circle cx="15" cy="7.003" r="4" fill="#757575"/></g></g></svg>