<svg xmlns="http://www.w3.org/2000/svg" xmlns:xlink="http://www.w3.org/1999/xlink" width="24" height="24" x="0" y="0" enable-background="new 0 0 24 24" version="1.1" viewBox="0 0 24 24" xml:space="preserve"><g id="Frames-24px"><rect width="24" height="24" fill="none"/></g><g id="Solid"><g><path fill="#757575" d="M21,10h-1V8c0-1.103-0.897-2-2-2h-0.382l-1.724-3.447c-0.233-0.465-0.782-0.673-1.266-0.482L4.807,6H4 C2.897,6,2,6.897,2,8v12c0,1.103,0.897,2,2,2h14c1.103,0,2-0.897,2-2v-2h1c0.552,0,1-0.448,1-1v-6C22,10.448,21.552,10,21,10z M14.517,4.27L15.382,6h-5.189L14.517,4.27z M20,16h-6.585l-2-2l2-2H20V16z"/><circle cx="15" cy="14" r="1" fill="#757575"/></g></g></svg>