<svg xmlns="http://www.w3.org/2000/svg" xmlns:xlink="http://www.w3.org/1999/xlink" width="24" height="24" x="0" y="0" enable-background="new 0 0 24 24" version="1.1" viewBox="0 0 24 24" xml:space="preserve"><g id="Frames-24px"><rect width="24" height="24" fill="none"/></g><g id="Solid"><g><path fill="#757575" d="M22.515,7.143l-10-6c-0.317-0.19-0.712-0.19-1.029,0l-10,6C1.1,7.374,0.917,7.834,1.036,8.268 C1.156,8.7,1.55,9,2,9v14h2V9h16v14h2V9c0.45,0,0.844-0.3,0.964-0.732C23.083,7.834,22.9,7.374,22.515,7.143z"/><polygon fill="#757575" points="9 10 9 16 15 16 15 10 13 10 13 12 11 12 11 10"/><polygon fill="#757575" points="9 19 7 19 7 17 5 17 5 23 11 23 11 17 9 17"/><polygon fill="#757575" points="17 19 15 19 15 17 13 17 13 23 19 23 19 17 17 17"/></g></g></svg>